<mxfile host="app.diagrams.net" modified="2023-10-25T03:01:19.453Z" agent="Mozilla/5.0 (Windows NT 10.0; Win64; x64) AppleWebKit/537.36 (KHTML, like Gecko) Chrome/116.0.5845.888 YaBrowser/23.9.2.888 Yowser/2.5 Safari/537.36" etag="SwSTEmXcwHEhVOnSKRnm" version="22.0.6" type="device">
  <diagram name="Страница — 1" id="6CkRa5xmPJPYkDMl5KPQ">
    <mxGraphModel dx="832" dy="485" grid="1" gridSize="10" guides="1" tooltips="1" connect="1" arrows="1" fold="1" page="1" pageScale="1" pageWidth="827" pageHeight="1169" math="0" shadow="0">
      <root>
        <mxCell id="0" />
        <mxCell id="1" parent="0" />
        <mxCell id="OcNdOXKfdDaGZ7R2aRl5-1" value="" style="ellipse;html=1;shape=endState;fillColor=#000000;strokeColor=#ff0000;" vertex="1" parent="1">
          <mxGeometry x="414" y="460" width="30" height="30" as="geometry" />
        </mxCell>
        <mxCell id="OcNdOXKfdDaGZ7R2aRl5-2" value="" style="ellipse;whiteSpace=wrap;html=1;aspect=fixed;fillColor=#000000;" vertex="1" parent="1">
          <mxGeometry x="410" width="30" height="30" as="geometry" />
        </mxCell>
        <mxCell id="OcNdOXKfdDaGZ7R2aRl5-3" style="rounded=0;orthogonalLoop=1;jettySize=auto;html=1;endArrow=open;endFill=0;" edge="1" parent="1" source="OcNdOXKfdDaGZ7R2aRl5-4" target="OcNdOXKfdDaGZ7R2aRl5-6">
          <mxGeometry relative="1" as="geometry" />
        </mxCell>
        <mxCell id="OcNdOXKfdDaGZ7R2aRl5-4" value="Формирование формы регистрации окончания тренировки спортсмена" style="rounded=1;whiteSpace=wrap;html=1;" vertex="1" parent="1">
          <mxGeometry x="365" y="70" width="125" height="70" as="geometry" />
        </mxCell>
        <mxCell id="OcNdOXKfdDaGZ7R2aRl5-5" style="rounded=0;orthogonalLoop=1;jettySize=auto;html=1;entryX=1;entryY=1;entryDx=0;entryDy=0;endArrow=open;endFill=0;" edge="1" parent="1" source="OcNdOXKfdDaGZ7R2aRl5-6" target="OcNdOXKfdDaGZ7R2aRl5-17">
          <mxGeometry relative="1" as="geometry" />
        </mxCell>
        <mxCell id="OcNdOXKfdDaGZ7R2aRl5-6" value="Занесение данных о окончанной тренировке" style="rounded=1;whiteSpace=wrap;html=1;" vertex="1" parent="1">
          <mxGeometry x="365" y="190" width="120" height="60" as="geometry" />
        </mxCell>
        <mxCell id="OcNdOXKfdDaGZ7R2aRl5-7" style="rounded=0;orthogonalLoop=1;jettySize=auto;html=1;endArrow=open;endFill=0;" edge="1" parent="1" source="OcNdOXKfdDaGZ7R2aRl5-9" target="OcNdOXKfdDaGZ7R2aRl5-14">
          <mxGeometry relative="1" as="geometry" />
        </mxCell>
        <mxCell id="OcNdOXKfdDaGZ7R2aRl5-8" style="rounded=0;orthogonalLoop=1;jettySize=auto;html=1;entryX=0.5;entryY=0;entryDx=0;entryDy=0;" edge="1" parent="1" source="OcNdOXKfdDaGZ7R2aRl5-9" target="OcNdOXKfdDaGZ7R2aRl5-1">
          <mxGeometry relative="1" as="geometry" />
        </mxCell>
        <mxCell id="OcNdOXKfdDaGZ7R2aRl5-9" value="Отправка данных на сервер" style="rounded=1;whiteSpace=wrap;html=1;" vertex="1" parent="1">
          <mxGeometry x="369" y="340" width="120" height="60" as="geometry" />
        </mxCell>
        <mxCell id="OcNdOXKfdDaGZ7R2aRl5-10" style="rounded=0;orthogonalLoop=1;jettySize=auto;html=1;endArrow=open;endFill=0;" edge="1" parent="1" source="OcNdOXKfdDaGZ7R2aRl5-11" target="OcNdOXKfdDaGZ7R2aRl5-4">
          <mxGeometry relative="1" as="geometry" />
        </mxCell>
        <mxCell id="OcNdOXKfdDaGZ7R2aRl5-11" value="Данные о спорстменах, тренировках" style="rounded=0;whiteSpace=wrap;html=1;" vertex="1" parent="1">
          <mxGeometry x="600" y="70" width="120" height="60" as="geometry" />
        </mxCell>
        <mxCell id="OcNdOXKfdDaGZ7R2aRl5-12" style="edgeStyle=orthogonalEdgeStyle;rounded=0;orthogonalLoop=1;jettySize=auto;html=1;" edge="1" parent="1" source="OcNdOXKfdDaGZ7R2aRl5-13" target="OcNdOXKfdDaGZ7R2aRl5-6">
          <mxGeometry relative="1" as="geometry" />
        </mxCell>
        <mxCell id="OcNdOXKfdDaGZ7R2aRl5-13" value="Данные о окончанной тренировки" style="rounded=0;whiteSpace=wrap;html=1;" vertex="1" parent="1">
          <mxGeometry x="600" y="190" width="120" height="60" as="geometry" />
        </mxCell>
        <mxCell id="OcNdOXKfdDaGZ7R2aRl5-14" value="Заполненная форма регистрации окончания тренировки спортсмена" style="rounded=0;whiteSpace=wrap;html=1;" vertex="1" parent="1">
          <mxGeometry x="600" y="360" width="140" height="80" as="geometry" />
        </mxCell>
        <mxCell id="OcNdOXKfdDaGZ7R2aRl5-15" style="rounded=0;orthogonalLoop=1;jettySize=auto;html=1;entryX=0;entryY=0.5;entryDx=0;entryDy=0;endArrow=open;endFill=0;" edge="1" parent="1" source="OcNdOXKfdDaGZ7R2aRl5-17" target="OcNdOXKfdDaGZ7R2aRl5-4">
          <mxGeometry relative="1" as="geometry" />
        </mxCell>
        <mxCell id="OcNdOXKfdDaGZ7R2aRl5-16" style="edgeStyle=orthogonalEdgeStyle;rounded=0;orthogonalLoop=1;jettySize=auto;html=1;entryX=0;entryY=0.5;entryDx=0;entryDy=0;exitX=0.25;exitY=1;exitDx=0;exitDy=0;" edge="1" parent="1" source="OcNdOXKfdDaGZ7R2aRl5-17" target="OcNdOXKfdDaGZ7R2aRl5-9">
          <mxGeometry relative="1" as="geometry" />
        </mxCell>
        <mxCell id="OcNdOXKfdDaGZ7R2aRl5-17" value="&lt;u&gt;Форма регистрации окончания тренировки спортсмена&lt;/u&gt;" style="rounded=0;whiteSpace=wrap;html=1;fillColor=#28FCE7;strokeColor=#6c8ebf;" vertex="1" parent="1">
          <mxGeometry x="70" y="50" width="160" height="90" as="geometry" />
        </mxCell>
        <mxCell id="OcNdOXKfdDaGZ7R2aRl5-18" style="rounded=0;orthogonalLoop=1;jettySize=auto;html=1;exitX=0.5;exitY=0;exitDx=0;exitDy=0;entryX=0.5;entryY=0;entryDx=0;entryDy=0;" edge="1" parent="1" source="OcNdOXKfdDaGZ7R2aRl5-19" target="OcNdOXKfdDaGZ7R2aRl5-4">
          <mxGeometry relative="1" as="geometry" />
        </mxCell>
        <mxCell id="OcNdOXKfdDaGZ7R2aRl5-19" value="ActivityInitial" style="text;html=1;strokeColor=none;fillColor=none;align=center;verticalAlign=middle;whiteSpace=wrap;rounded=0;" vertex="1" parent="1">
          <mxGeometry x="395" y="30" width="60" height="30" as="geometry" />
        </mxCell>
        <mxCell id="OcNdOXKfdDaGZ7R2aRl5-20" value="ActivityFinal" style="text;html=1;strokeColor=none;fillColor=none;align=center;verticalAlign=middle;whiteSpace=wrap;rounded=0;" vertex="1" parent="1">
          <mxGeometry x="399" y="490" width="60" height="30" as="geometry" />
        </mxCell>
        <mxCell id="OcNdOXKfdDaGZ7R2aRl5-21" style="edgeStyle=orthogonalEdgeStyle;rounded=0;orthogonalLoop=1;jettySize=auto;html=1;endArrow=open;endFill=0;exitX=0.5;exitY=1;exitDx=0;exitDy=0;" edge="1" parent="1" source="OcNdOXKfdDaGZ7R2aRl5-6">
          <mxGeometry relative="1" as="geometry">
            <mxPoint x="424.57" y="280" as="sourcePoint" />
            <mxPoint x="424.57" y="340" as="targetPoint" />
          </mxGeometry>
        </mxCell>
      </root>
    </mxGraphModel>
  </diagram>
</mxfile>
